<svg width="1200" height="630" preserveAspectRatio="xMidYMid" version="1.1" viewBox="0 0 1200 630" xml:space="preserve" xmlns="http://www.w3.org/2000/svg"><g transform="matrix(1.1105 0 0 1.1105 -69.431 133.5)" style="fill:#ffd42a"><g transform="matrix(.20453 0 0 .20453 -7.0563 -144.93)" style="fill:#ffd42a"><g transform="matrix(2.4725 0 0 2.4725 815.14 815.18)" style="fill:#ffd42a"><path d="m81.145 188.74c-8.0454 0-14.815 6.6491-14.815 14.551 0 7.9017 6.7701 14.553 14.815 14.553h118.54c8.0454 0 14.815-6.6511 14.815-14.553 0-7.9017-6.7701-14.551-14.815-14.551z" style="color-rendering:auto;color:#000000;dominant-baseline:auto;fill:#ffd42a;font-feature-settings:normal;font-variant-alternates:normal;font-variant-caps:normal;font-variant-east-asian:normal;font-variant-ligatures:normal;font-variant-numeric:normal;font-variant-position:normal;font-variation-settings:normal;image-rendering:auto;inline-size:0;isolation:auto;mix-blend-mode:normal;opacity:.99;shape-margin:0;shape-padding:0;shape-rendering:auto;solid-color:#000000;stop-color:#000000;text-decoration-color:#000000;text-decoration-line:none;text-decoration-style:solid;text-indent:0;text-orientation:mixed;text-transform:none;white-space:normal"/><path d="m117.98 240.87c-8.3489 0-15.376 6.6511-15.376 14.553 0 7.9017 7.0275 14.551 15.376 14.551h117.42c8.3489 0 15.376-6.6491 15.376-14.551 0-7.9017-7.0275-14.553-15.376-14.553z" style="color-rendering:auto;color:#000000;dominant-baseline:auto;fill:#ffd42a;font-feature-settings:normal;font-variant-alternates:normal;font-variant-caps:normal;font-variant-east-asian:normal;font-variant-ligatures:normal;font-variant-numeric:normal;font-variant-position:normal;font-variation-settings:normal;image-rendering:auto;inline-size:0;isolation:auto;mix-blend-mode:normal;opacity:.99;shape-margin:0;shape-padding:0;shape-rendering:auto;solid-color:#000000;stop-color:#000000;text-decoration-color:#000000;text-decoration-line:none;text-decoration-style:solid;text-indent:0;text-orientation:mixed;text-transform:none;white-space:normal"/><path d="m210.21 51.287c-6.0852-5.1999-15.343-4.0676-20.327 1.7728l-120.08 140.74c-4.9831 5.8405-4.6485 15.167 1.4366 20.367 6.0852 5.1999 15.344 4.0704 20.327-1.7701l120.08-140.74c4.9831-5.8405 4.6483-15.17-1.4368-20.37z" style="color-rendering:auto;color:#000000;dominant-baseline:auto;fill:#ffd42a;font-feature-settings:normal;font-variant-alternates:normal;font-variant-caps:normal;font-variant-east-asian:normal;font-variant-ligatures:normal;font-variant-numeric:normal;font-variant-position:normal;font-variation-settings:normal;image-rendering:auto;inline-size:0;isolation:auto;mix-blend-mode:normal;opacity:.99;shape-margin:0;shape-padding:0;shape-rendering:auto;solid-color:#000000;stop-color:#000000;text-decoration-color:#000000;text-decoration-line:none;text-decoration-style:solid;text-indent:0;text-orientation:mixed;text-transform:none;white-space:normal"/><path d="m90.003 47.53c-7.9017 0-14.553 6.6511-14.553 14.553 0 7.9017 6.6511 14.551 14.553 14.551h110.64c7.9017 0 14.551-6.6491 14.551-14.551s-6.6491-14.553-14.551-14.553z" style="color-rendering:auto;color:#000000;dominant-baseline:auto;fill:#ffd42a;font-feature-settings:normal;font-variant-alternates:normal;font-variant-caps:normal;font-variant-east-asian:normal;font-variant-ligatures:normal;font-variant-numeric:normal;font-variant-position:normal;font-variation-settings:normal;image-rendering:auto;inline-size:0;isolation:auto;mix-blend-mode:normal;opacity:.99;shape-margin:0;shape-padding:0;shape-rendering:auto;solid-color:#000000;stop-color:#000000;text-decoration-color:#000000;text-decoration-line:none;text-decoration-style:solid;text-indent:0;text-orientation:mixed;text-transform:none;white-space:normal"/><path d="m246.28 103.71c-6.0852-5.1999-15.343-4.0676-20.327 1.7728l-120.08 140.74c-4.9831 5.8405-4.6486 15.167 1.4366 20.367 6.0852 5.1999 15.344 4.0704 20.327-1.7701l120.08-140.74c4.9831-5.8405 4.6483-15.17-1.4368-20.37z" style="color-rendering:auto;color:#000000;dominant-baseline:auto;fill:#ffd42a;font-feature-settings:normal;font-variant-alternates:normal;font-variant-caps:normal;font-variant-east-asian:normal;font-variant-ligatures:normal;font-variant-numeric:normal;font-variant-position:normal;font-variation-settings:normal;image-rendering:auto;inline-size:0;isolation:auto;mix-blend-mode:normal;opacity:.99;shape-margin:0;shape-padding:0;shape-rendering:auto;solid-color:#000000;stop-color:#000000;text-decoration-color:#000000;text-decoration-line:none;text-decoration-style:solid;text-indent:0;text-orientation:mixed;text-transform:none;white-space:normal"/></g><g transform="matrix(1.0966 0 0 1.0966 -101.94 -46.498)" style="fill:#ffd42a"><path transform="matrix(.91188 0 0 .91188 92.954 42.401)" d="m579.77 1187.7v71.406h-239.59l4.721 17.114h234.87v133.37c0 8.852-2.9506 11.803-13.573 11.803-14.163 0-91.47-4.721-91.47-4.721v8.2618c33.637 4.721 49.571 11.212 61.373 20.654 10.622 8.2618 14.163 21.245 17.114 39.539 74.356-7.0816 84.979-31.277 84.979-71.996v-136.91h227.79c8.2618 0 14.163-2.9507 15.933-9.4421-23.605-21.245-61.373-51.341-61.373-51.341l-34.227 43.67h-148.12v-48.981c12.983-1.7704 18.884-6.4914 20.064-15.343l-4.721-0.5902c38.949-15.933 78.487-38.358 109.17-57.833 11.803-0.5901 18.884-2.3605 23.605-7.0815l-57.243-50.161-32.457 33.047h-250.8l5.3112 17.114h239.59c-15.933 20.064-38.358 44.26-60.783 63.144zm-173.5-203.59c1.7704 36.588-20.064 72.586-40.129 86.749-16.524 9.442-26.556 25.966-18.884 43.079 9.4421 20.064 37.178 21.245 53.112 7.0815 16.524-13.573 28.326-40.719 27.146-77.897h368.83c-7.6717 19.474-17.704 42.489-25.966 57.833l5.9013 4.1309c26.556-12.393 62.554-34.228 83.208-51.341 12.393-1.1802 18.294-2.3605 23.605-6.4914l-55.472-53.112-31.867 31.867h-157.56v-67.865c15.343-2.3605 20.655-8.2618 21.245-16.524l-79.667-6.4914v90.88h-154.02c-1.7704-12.983-5.3112-27.146-10.622-41.899z" style="fill:#ffd42a;stroke-width:0" aria-label="字"/><path transform="matrix(.91188 0 0 .91188 92.954 42.401)" d="m719.54 1634.4c42.661-1.9689 93.854 6.5633 116.83 40.692 6.5632 11.158 5.2506 17.064-2.6253 25.597-8.5322 8.5322-37.411 27.566-50.537 36.098l5.9069 9.8448c14.439-5.2506 41.348-15.095 54.475-16.408 19.033-2.6253 29.535 17.064 45.286 15.096 19.033-0.6563 27.566-15.752 26.909-33.473-1.3126-45.286-47.912-89.916-106.32-99.105-32.16-5.2506-61.695-0.6563-91.229 7.8759zm-318.97 299.28c-12.47 7.2195-21.659 10.501-38.723 8.5322-17.064-0.6563-21.659 4.5943-21.659 25.597 0 13.126 4.5943 25.597 15.095 36.754 7.8759 7.8759 16.408 13.126 26.253 13.126 11.158 0 18.377-9.8449 37.411-28.878 22.315 14.439 47.912 34.129 64.32 49.881 20.346 19.69 21.002 43.974 40.692 43.974 23.628 0 45.943-36.754 45.943-68.258 0-24.94-8.5322-47.255-11.814-140.45 49.224-29.535 106.32-55.788 156.86-55.788 69.57 0 97.792 40.036 97.792 86.635 0 53.162-36.754 91.886-96.48 91.886-44.63 0-77.446-17.721-101.73-39.38l-9.1886 9.1885c30.191 50.537 70.227 80.072 124.7 80.072 87.291 0 140.45-59.069 140.45-127.33 0-80.072-57.757-127.98-139.8-127.98-64.32 0-120.11 19.69-173.27 45.286v-23.628c0-25.597 1.3126-54.475 2.6253-82.041 32.816-10.501 72.852-23.628 96.48-35.442 15.095-7.8759 23.628-17.721 23.628-29.535-1.3126-24.284-34.785-24.94-43.974-24.94-11.158 0.6563-29.535 17.721-71.539 34.785 2.6253-22.971 5.2506-42.005 7.8759-54.475 4.5943-21.002 15.095-31.504 15.095-48.568 0-17.721-46.599-40.036-76.79-40.036-21.002 0-38.067 6.5632-54.475 17.721l1.3126 11.158c19.033 0.6563 33.473 1.9689 45.286 6.5632 10.501 3.938 14.439 6.5633 14.439 24.284v99.105c-26.253 7.2196-53.819 13.126-74.165 13.783-31.504 0.6564-44.63-5.9069-76.79-36.754l-9.8449 7.2196c22.315 65.632 53.819 77.446 90.573 77.446 18.377 0 46.599-5.2506 70.227-11.158v115.51c-45.286 25.597-95.167 64.32-116.83 76.134zm116.83-33.473v89.916c0 12.47-4.5943 17.721-18.377 13.126-17.721-5.9069-43.317-17.721-66.289-28.222 24.284-23.628 55.131-53.162 84.666-74.821z" style="fill:#ffd42a;stroke-width:0" aria-label="お"/><path transform="matrix(.91188 0 0 .91188 92.954 42.401)" d="m1109.9 1546.3q-25.394 23.536-41.498 48.311-15.484 24.775-22.297 55.124-6.813 29.73-6.813 69.989 0 17.342 3.7162 34.065 4.3356 16.104 11.768 32.207 24.775-33.446 52.646-61.937 27.872-29.11 52.646-50.169 50.788-43.356 93.525-61.937 43.356-18.581 67.511-18.581 39.02 0 64.414 21.058 26.014 20.439 38.401 54.504 13.007 34.065 13.007 74.944 0 34.065-11.149 68.75-11.149 34.685-32.826 63.795-21.678 28.491-53.885 45.833t-74.944 17.342q-50.788 0-79.899-25.394-28.491-26.014-28.491-67.511 0-30.968 13.007-47.691 13.626-16.723 36.543-16.723 14.865 0 24.155 8.6712 9.2905 8.0518 9.2905 22.297 0 19.82-13.007 28.491-13.007 8.0518-29.11 9.9099-1.8581 5.5744-1.8581 12.387 0 25.394 19.82 38.401 19.82 12.387 44.595 12.387 31.588 0 52.027-16.104 20.439-16.104 32.826-40.878 12.387-24.775 17.962-50.169 6.1937-26.014 8.0518-46.453 1.8581-20.439 1.8581-27.252 0-8.6711-1.8581-25.394-1.8581-17.342-8.6711-35.304-6.8131-18.581-21.059-31.588-14.246-13.007-38.401-13.007-28.491 0-61.318 16.723-32.207 16.723-65.034 43.975-29.73 24.775-57.601 55.743-27.872 30.968-50.788 64.414 13.626 23.536 29.73 46.453 16.723 22.297 31.588 44.595t24.155 44.595q9.9099 22.917 9.9099 47.072 0 39.64-21.058 65.034-20.439 25.394-53.885 25.394-30.349 0-55.124-14.865-24.155-14.865-38.401-40.878-14.245-26.014-14.245-58.84 0-30.968 11.149-63.795 11.149-33.446 27.872-63.176-15.484-26.633-26.014-55.124-9.9099-29.11-9.9099-61.318 0-37.162 12.387-68.131 13.007-31.588 31.588-56.363 19.2-24.775 39.02-41.498 19.82-17.342 34.065-26.014zm-3.0968 470.1q0-25.394-11.149-50.169-11.149-24.155-27.872-48.93-16.723-25.394-34.065-52.027-13.626 26.633-21.058 52.646-7.4324 25.394-7.4324 47.072 0 29.11 11.768 49.55t28.491 30.968q16.723 11.149 30.968 11.149t22.297-10.529 8.0518-29.73z" style="fill:#ffd42a;stroke-width:0" aria-label="℘"/></g></g><path transform="rotate(-90)" d="m-281.05 357.29v-1.2294h5.4095v-34.621h-5.4095v-1.2294h17.409v1.2294h-5.4095v16.179h14.163v-16.179h-5.4095v-1.2294h17.409v1.2294h-5.4095v34.621h5.4095v1.2294h-17.409v-1.2294h5.4095v-17.212h-14.163v17.212h5.4095v1.2294zm52.57 0.59012q-2.4097 0-4.5243-0.98354-2.0654-0.98354-3.6883-2.6064-1.5737-1.672-2.4588-3.7374-0.88518-2.1146-0.88518-4.3276 0-2.213 0.88518-4.2784 0.88519-2.1146 2.4588-3.7374 1.6228-1.672 3.6883-2.6556 2.1146-0.98354 4.5243-0.98354t4.4751 0.98354q2.1146 0.98354 3.6883 2.6556 1.6228 1.6228 2.508 3.7374 0.88518 2.0654 0.88518 4.2784 0 2.213-0.88518 4.3276-0.88519 2.0654-2.508 3.7374-1.5737 1.6228-3.6883 2.6064-2.0654 0.98354-4.4751 0.98354zm0-1.4753q1.8687 0 2.9998-0.83601t1.6228-2.9998q0.54094-2.213 0.54094-6.3438t-0.54094-6.3438q-0.49177-2.213-1.6228-2.9998-1.1311-0.83601-2.9998-0.83601t-2.9998 0.83601q-1.1311 0.78683-1.672 2.9998-0.49177 2.213-0.49177 6.3438t0.49177 6.3438q0.54094 2.1638 1.672 2.9998t2.9998 0.83601zm18.343 0.14753v-35.555h5.4095v35.555zm-3.885 0.73766v-1.2294h13.229v1.2294zm0-35.85v-1.2294h9.2944v1.2294zm18.441 35.112v-35.555h5.4095v35.555zm-3.885 0.73766v-1.2294h13.229v1.2294zm0-35.85v-1.2294h9.2944v1.2294zm27.736 36.44q-2.4097 0-4.5243-0.98354-2.0654-0.98354-3.6883-2.6064-1.5737-1.672-2.4588-3.7374-0.88519-2.1146-0.88519-4.3276 0-2.213 0.88519-4.2784 0.88518-2.1146 2.4588-3.7374 1.6228-1.672 3.6883-2.6556 2.1146-0.98354 4.5243-0.98354 2.4097 0 4.4751 0.98354 2.1146 0.98354 3.6883 2.6556 1.6228 1.6228 2.508 3.7374 0.88519 2.0654 0.88519 4.2784 0 2.213-0.88519 4.3276-0.88518 2.0654-2.508 3.7374-1.5737 1.6228-3.6883 2.6064-2.0654 0.98354-4.4751 0.98354zm0-1.4753q1.8687 0 2.9998-0.83601t1.6228-2.9998q0.54095-2.213 0.54095-6.3438t-0.54095-6.3438q-0.49177-2.213-1.6228-2.9998-1.1311-0.83601-2.9998-0.83601-1.8687 0-2.9998 0.83601-1.1311 0.78683-1.672 2.9998-0.49177 2.213-0.49177 6.3438t0.49177 6.3438q0.54095 2.1638 1.672 2.9998t2.9998 0.83601zm23.064 1.4753-7.5733-21.49h-3.049v-1.2294h11.901v1.2294h-2.8031l4.3276 13.229h0.19671l5.1144-14.458h1.8687l5.2128 14.458h0.1967l4.3768-13.229h-3.6391v-1.2294h8.901v1.2294h-3.5407l-7.4257 21.49h-1.4261l-5.3603-15.097h-0.19671l-5.6554 15.097zm32.113 0q-2.6556 0-4.3276-1.5245-1.672-1.5245-1.672-3.9833 0-2.3605 1.5737-4.0325 1.6228-1.672 4.5735-2.5572 2.9506-0.93437 6.9831-0.93437v-5.9996q0-1.2786-0.98354-2.0163-0.98354-0.73765-2.7047-0.73765-1.4753 0-2.4097 0.49177-0.93437 0.49177-0.93437 1.2786 0 0.49177 0.34424 0.88519 0.34424 0.39341 0.34424 1.2294 0 1.0327-0.78683 1.7212-0.73766 0.6393-1.9179 0.6393-1.1802 0-1.8687-0.68848-0.68848-0.73766-0.68848-1.8196 0-1.4753 1.1802-2.6556 1.1802-1.2294 3.1965-1.9179 2.0163-0.68848 4.5243-0.68848 3.5899 0 5.8521 1.4261 2.2621 1.377 2.2621 3.6391v14.95q0 0.49177 0.29507 0.83601 0.34423 0.29506 0.78683 0.29506 0.44259 0 1.0327-0.44259 0.59013-0.49177 1.4753-1.4753l0.68848 0.78683q-2.3113 3.2949-5.1636 3.2949-1.7212 0-2.8523-0.93436-1.0819-0.98354-1.4753-2.7047h-0.19671q-0.93436 1.5737-2.9506 2.6064-2.0162 1.0327-4.18 1.0327zm2.9506-2.7047q1.8687 0 2.9998-1.377 1.1802-1.4261 1.1802-3.6883v-3.9833q-3.6883 0-5.557 1.377-1.8687 1.3278-1.8687 3.9342 0 1.7704 0.83601 2.7539 0.88518 0.98354 2.4097 0.98354zm17.261 18.146q-1.2294 0-1.9179-0.49177t-0.98354-1.1802q-0.24588-0.68848-0.24588-1.2786 0-1.1802 0.68848-1.9179 0.73766-0.68847 1.8195-0.68847 0.98354 0 1.5245 0.44259 0.54095 0.49177 0.88519 0.93436 0.39342 0.49177 0.83601 0.49177 0.39342 0 0.59012-0.34424 0.24588-0.34424 0.39342-0.78683l11.655-32.457h1.7704l-11.802 31.867q-1.2294 3.2949-2.5572 4.3276-1.3278 1.0819-2.6556 1.0819zm7.9667-16.769-9.6879-20.9 5.9504-0.29507 6.0488 14.114h0.29506zm-12.245-20.163v-1.2294h12.196v1.2294zm15.737 0v-1.2294h9.2453v1.2294zm13.573-1.8687q0-3.049-0.39342-4.8685-0.34424-1.8687-0.83601-2.9998-0.44259-1.1802-0.83601-2.0654-0.34424-0.88518-0.34424-1.9179 0-1.5245 0.88519-2.213 0.93436-0.68847 2.1638-0.68847t2.1146 0.68847q0.93436 0.68848 0.93436 2.213 0 1.0327-0.39342 1.9179-0.34424 0.88519-0.83601 2.0654-0.44259 1.1311-0.83601 2.9998-0.34424 1.8196-0.34424 4.8685zm17.9 23.359q-2.0163 0-3.9342-0.68848-1.8687-0.68848-3.049-1.8196l-0.73766 1.9179h-1.4261v-7.5241h1.5737l0.24588 0.93437q0.68848 2.6556 2.4588 4.0325 1.8195 1.377 4.8193 1.377 2.4588 0 3.4424-0.83601 0.98354-0.88519 0.98354-2.508t-1.3278-2.3605q-1.3278-0.78684-4.0817-1.377-2.3605-0.49177-4.1309-1.2294-1.7212-0.78683-2.7047-2.1638-0.98354-1.4261-0.98354-3.885 0-3.4916 2.0163-5.3111 2.0163-1.8687 5.7537-1.8687 2.1146 0 3.6391 0.59013 1.5737 0.59012 2.213 1.6228l0.54095-1.6228h1.2786v7.1307h-1.5245l-0.14753-0.73765q-0.54095-2.7539-1.9179-3.9833-1.3278-1.2294-3.9833-1.2294-2.3605 0-3.5407 0.93437-1.1311 0.88518-1.1311 2.508 0 0.78684 0.44259 1.4261 0.44259 0.59012 1.6228 1.0819 1.2294 0.49177 3.3932 0.98354 2.508 0.54095 4.2292 1.377t2.6064 2.213q0.93436 1.377 0.93436 3.5899 0 3.3932-2.0654 5.4095-2.0654 2.0163-5.5078 2.0163z" style="fill:#ffd42a;stroke-linecap:square;stroke-linejoin:round;stroke-width:2.7662" aria-label="Holloway's"/><path d="m559.22 120.97q-0.30667-18.093-6.1333-33.427-5.8267-15.333-16.56-24.533-10.427-9.5067-25.76-9.5067h-128.19v-7.6667h187.37v75.133zm-176.64 156.09v-7.6667h111.01v7.6667zm36.187-4.6v-226.63h41.093v226.63zm88.627-61.64q-0.30667-17.173-4.6-26.987-4.2933-9.8134-14.72-13.8-10.12-4.2933-29.133-4.2933v-7.6667q19.013 0 29.44-3.68 10.733-3.68 14.72-12.88 4.2933-9.2 4.2933-25.76h10.733v95.067zm137.69 69.92q-15.027 0-28.213-6.1333-12.88-6.1333-23-16.253-9.8133-10.427-15.333-23.307-5.52-13.187-5.52-26.987 0-13.8 5.52-26.68 5.52-13.187 15.333-23.307 10.12-10.427 23-16.56 13.187-6.1333 28.213-6.1333t27.907 6.1333q13.187 6.1333 23 16.56 10.12 10.12 15.64 23.307 5.52 12.88 5.52 26.68 0 13.8-5.52 26.987-5.52 12.88-15.64 23.307-9.8133 10.12-23 16.253-12.88 6.1333-27.907 6.1333zm0-9.2q11.653 0 18.707-5.2133t10.12-18.707q3.3733-13.8 3.3733-39.56t-3.3733-39.56q-3.0667-13.8-10.12-18.707-7.0533-5.2133-18.707-5.2133-11.653 0-18.707 5.2133-7.0533 4.9067-10.427 18.707-3.0667 13.8-3.0667 39.56t3.0667 39.56q3.3733 13.493 10.427 18.707 7.0534 5.2133 18.707 5.2133zm208.23 0.92v-103.65q0-23-18.4-23-10.12 0-18.707 8.28-8.28 8.28-13.493 22.693-4.9067 14.107-4.9067 32.2l-6.1333-44.467h7.36q6.44-12.573 17.48-20.853 11.347-8.28 29.133-8.28 18.093 0 29.747 9.8133 11.653 9.5067 11.653 23.613v103.65zm-113.47 4.6v-7.6667h77.893v7.6667zm24.227-4.6v-128.49h33.733v128.49zm65.933 4.6v-7.6667h77.893v7.6667zm-90.16-130.33v-7.6667h57.96v7.6667zm234.29 134.32q-15.947 0-23.92-6.44-7.6667-6.44-7.6667-19.32v-108.25h-24.84v-7.6667q10.733-0.92 19.933-8.28 9.5067-7.6667 17.173-19.32 7.9733-11.653 12.88-25.453h8.5867v53.053h35.267v7.6667h-35.267v106.11q0 13.8 11.347 13.8 6.44 0 11.653-4.2933 5.52-4.6 11.347-15.027l6.1333 3.3733q-7.6667 16.867-17.48 23.613-9.8134 6.44-25.147 6.44zm121.75-0.30666q-12.573 0-24.533-4.2933-11.653-4.2933-19.013-11.347l-4.6 11.96h-8.8933v-46.92h9.8133l1.5334 5.8267q4.2933 16.56 15.333 25.147 11.347 8.5867 30.053 8.5867 15.333 0 21.467-5.2133 6.1333-5.52 6.1333-15.64t-8.28-14.72q-8.28-4.9067-25.453-8.5867-14.72-3.0667-25.76-7.6667-10.733-4.9067-16.867-13.493-6.1333-8.8933-6.1333-24.227 0-21.773 12.573-33.12 12.573-11.653 35.88-11.653 13.187 0 22.693 3.68 9.8134 3.68 13.8 10.12l3.3734-10.12h7.9733v44.467h-9.5067l-0.92-4.6q-3.3733-17.173-11.96-24.84-8.28-7.6667-24.84-7.6667-14.72 0-22.08 5.8267-7.0534 5.52-7.0534 15.64 0 4.9067 2.76 8.8934 2.76 3.68 10.12 6.7467 7.6666 3.0667 21.16 6.1333 15.64 3.3733 26.373 8.5867 10.733 5.2133 16.253 13.8 5.8267 8.5867 5.8267 22.387 0 21.16-12.88 33.733-12.88 12.573-34.347 12.573z" style="fill:#ffd42a;stroke-linecap:square;stroke-linejoin:round;stroke-width:3" aria-label="Fonts"/></g></svg>
